<svg width="54" height="48" viewBox="0 0 54 48" fill="none" xmlns="http://www.w3.org/2000/svg">
<path d="M53.7561 47.0708L49.5319 23.7978C49.4898 23.5655 49.3457 23.3643 49.1393 23.2495L38.5071 17.336C38.3692 17.2592 38.2145 17.2286 38.0625 17.2404L39.9968 42.1932L39.932 42.2222L52.6563 47.9306C52.7598 47.9769 52.8699 47.9998 52.9794 47.9998C53.1528 47.9998 53.3246 47.9428 53.4659 47.8322C53.6967 47.652 53.8083 47.3588 53.7561 47.0708Z" fill="#44C868"/>
<path d="M26.8857 22.9894L16.0117 17.3257C15.8813 17.2578 15.7368 17.2301 15.5945 17.2396C15.6322 17.2373 15.6702 17.2375 15.7077 17.2405L13.7734 42.1933L26.5625 47.9308C26.6657 47.977 26.7759 48 26.8857 48V22.9894Z" fill="#44C868"/>
<path d="M15.7063 17.2405C15.5544 17.2287 15.3997 17.2593 15.2617 17.336L4.62945 23.2496C4.42299 23.3643 4.27891 23.5654 4.23679 23.7978L0.0126942 47.0708C-0.0396043 47.3587 0.0721338 47.6519 0.302856 47.8324C0.444314 47.9429 0.616017 48 0.789295 48C0.898828 48 1.00899 47.9772 1.11243 47.9308L13.7674 42.2534L15.7063 17.2405Z" fill="#4CE166"/>
<path d="M38.0627 17.2399C37.9581 17.248 37.8546 17.2758 37.7588 17.3258L26.8848 22.9893V48C26.8848 48 26.8848 48 26.8849 48C26.9946 48 27.1049 47.9771 27.208 47.9308L39.9971 42.1933L38.0627 17.2399Z" fill="#4CE166"/>
<path d="M2.95575 30.8505L2.09766 35.5783L14.8041 28.867L15.0991 25.0613L15.148 24.4302L2.95575 30.8505Z" fill="#FFDB56"/>
<path d="M14.9193 27.3914L14.805 28.8671L2.09854 35.5783L0.0126942 47.0706C-0.0396043 47.3586 0.0721338 47.6518 0.302856 47.8322C0.444314 47.9428 0.616017 47.9998 0.789295 47.9998C0.898828 47.9998 1.00899 47.977 1.11243 47.9306L13.7674 42.2533L14.9193 27.3914Z" fill="#A8EEFC"/>
<path d="M26.8872 26.1088L15.1486 24.4303L14.8047 28.8672L26.8841 47.2114V40.541L19.676 29.1909L26.8872 30.0534V26.1088Z" fill="#FFBB24"/>
<path d="M48.3021 22.7841L43.1946 19.9432L38.3594 21.073L38.4199 21.8539L38.6587 24.9345L48.3021 22.7841Z" fill="#FFBB24"/>
<path d="M39.0887 30.4667L38.6308 24.5596L38.3606 21.0731L26.8887 26.1089V30.0535L34.3823 26.7949L39.0887 30.4667Z" fill="#FFDB56"/>
<path d="M53.7554 47.0707L52.6945 41.2248L38.6582 24.9344L39.0871 30.4665L53.4818 47.8175C53.7006 47.6362 53.8064 47.3514 53.7554 47.0707Z" fill="#FFBB24"/>
<path d="M26.9359 0C20.8488 0 15.8965 4.94819 15.8965 11.0304C15.8965 14.7927 17.6827 18.8321 21.2057 23.0361C23.7932 26.1239 26.3456 28.1099 26.453 28.193C26.5952 28.3029 26.7655 28.3578 26.936 28.3578C27.1063 28.3578 27.2768 28.3029 27.419 28.193C27.5263 28.1099 30.0787 26.1239 32.6662 23.0361C36.1892 18.8321 37.9755 14.7928 37.9755 11.0304C37.9753 4.94819 33.023 0 26.9359 0ZM31.0242 11.0303C31.0242 13.2862 29.1937 15.1152 26.9359 15.1152C24.678 15.1152 22.8476 13.2863 22.8476 11.0303C22.8476 8.77417 24.678 6.9453 26.9359 6.9453C29.1937 6.9453 31.0242 8.77428 31.0242 11.0303Z" fill="#FF4A4A"/>
<path d="M26.9337 0C26.4512 0 25.976 0.031295 25.5098 0.0915748C30.9269 0.791723 35.1253 5.43022 35.1253 11.0304C35.1253 14.7927 33.3391 18.8321 29.8161 23.0361C28.1521 25.0218 26.5039 26.5507 25.5099 27.4121C26.0616 27.8901 26.4126 28.1634 26.4508 28.193C26.593 28.3029 26.7634 28.3578 26.9338 28.3578C27.1041 28.3578 27.2746 28.3029 27.4168 28.193C27.5241 28.1099 30.0765 26.1239 32.664 23.0361C36.1871 18.8321 37.9733 14.7928 37.9733 11.0304C37.9731 4.94819 33.0208 0 26.9337 0Z" fill="#E7343F"/>
<path d="M27.208 47.9307L31.9637 45.7972L26.8848 40.541V48C26.8848 48 26.8848 48 26.8849 48C26.9946 48 27.1048 47.9772 27.208 47.9307Z" fill="#FFDB56"/>
<path d="M49.5293 23.7978C49.4872 23.5655 49.3431 23.3643 49.1366 23.2495L48.2996 22.7839L38.6562 24.9344L52.6924 41.2247L49.5293 23.7978Z" fill="#1EA4E9"/>
<path d="M26.8838 47.9999C26.8839 47.9999 26.8839 47.9999 26.8838 47.9999V47.2115L14.8045 28.8672L13.7715 42.1933L26.5606 47.9308C26.6638 47.9771 26.774 47.9999 26.8838 47.9999Z" fill="#1EA4E9"/>
</svg>
