<svg width="72" height="64" viewBox="0 0 72 64" fill="none" xmlns="http://www.w3.org/2000/svg">
<g clip-path="url(#clip0)">
<path d="M35.8413 33.9958C36.9388 33.9958 37.8269 33.157 37.8269 32.1205V24.3694C37.8269 23.3329 36.9388 22.4941 35.8413 22.4941C34.7438 22.4941 33.8557 23.3329 33.8557 24.3694V32.1205C33.8557 33.157 34.7438 33.9958 35.8413 33.9958ZM40.289 46.2974C40.0113 45.4349 39.0582 44.8722 38.0654 45.06C36.5956 45.3223 35.0871 45.3223 33.6172 45.06C32.6244 44.8723 31.6713 45.4349 31.3936 46.2974C25.6809 62.6011 25.9134 61.6437 25.9134 62.1248H45.7692C45.7692 61.6428 46.003 62.6044 40.289 46.2974Z" fill="url(#paint0_linear)"/>
<path d="M35.8413 48.9979C45.6137 48.9979 53.7115 41.5633 53.7115 32.1205C53.7115 31.0839 52.8235 30.2452 51.726 30.2452H19.9567C18.8592 30.2452 17.9712 31.0839 17.9712 32.1205C17.9712 41.6302 26.1264 48.9979 35.8413 48.9979ZM23.2066 8.68411C30.1716 2.10605 41.5111 2.10605 48.4761 8.68411C49.2518 9.41659 50.5083 9.41659 51.2838 8.68411C52.0594 7.95163 52.0594 6.76484 51.2838 6.03236C42.7676 -2.01079 28.9151 -2.01079 20.3989 6.03236C19.6233 6.76484 19.6233 7.95163 20.3989 8.68411C21.1744 9.41659 22.431 9.41659 23.2066 8.68411ZM45.6685 13.9894C46.4441 13.2569 46.4441 12.0701 45.6685 11.3376C40.2469 6.22089 31.4359 6.22089 26.0143 11.3376C25.2388 12.0701 25.2388 13.2569 26.0143 13.9894C26.7899 14.7218 28.0465 14.7218 28.8221 13.9894C32.6924 10.3341 38.9903 10.3341 42.8608 13.9894C43.6363 14.722 44.8928 14.722 45.6685 13.9894ZM31.6298 16.6411C30.8542 17.3736 30.8542 18.5604 31.6298 19.2929C32.4054 20.0254 33.662 20.0254 34.4375 19.2929C35.2131 18.5604 36.4697 18.5604 37.2453 19.2929C38.021 20.0254 39.2775 20.0254 40.053 19.2929C40.8286 18.5604 40.8286 17.3736 40.053 16.6411C37.7339 14.4473 33.949 14.4473 31.6298 16.6411ZM55.6971 60.2495H15.9856C14.8881 60.2495 14 61.0882 14 62.1247C14 63.1613 14.8881 64 15.9856 64H55.6971C56.7946 64 57.6827 63.1613 57.6827 62.1247C57.6827 61.0882 56.7946 60.2495 55.6971 60.2495Z" fill="url(#paint1_linear)"/>
</g>
<defs>
<linearGradient id="paint0_linear" x1="35.8414" y1="62.1248" x2="35.8414" y2="22.4941" gradientUnits="userSpaceOnUse">
<stop stop-color="#C3FFE8"/>
<stop offset="0.9973" stop-color="#F0FFF4"/>
</linearGradient>
<linearGradient id="paint1_linear" x1="39.7243" y1="64" x2="39.7243" y2="1.69273e-07" gradientUnits="userSpaceOnUse">
<stop stop-color="#F8991D"/>
<stop offset="1" stop-color="#FDE0B4"/>
</linearGradient>
<clipPath id="clip0">
<rect width="72" height="64" fill="white"/>
</clipPath>
</defs>
</svg>
