<svg width="68" height="65" viewBox="0 0 68 65" fill="none" xmlns="http://www.w3.org/2000/svg">
<g clip-path="url(#clip0)">
<path d="M64.1028 33.6492L63.3765 30.0176L62.0627 23.4475C60.8109 17.1873 58.7452 11.2078 55.9503 5.71901C55.9123 5.64426 55.873 5.57152 55.8293 5.49991C55.1344 4.36107 52.4157 0.73999 45.9338 0.73999H37.4621H26.8485H18.3816C11.4866 0.73999 8.85034 4.83578 8.3782 5.6842C5.57446 11.1824 3.50217 17.1739 2.24779 23.4473L0.153541 33.9196C-0.477787 37.0763 0.884432 40.3176 3.38264 41.604C5.4301 42.6584 7.80678 42.1643 9.4346 40.3462L19.5644 29.0308C20.2011 28.3193 21.1134 27.9125 22.0714 27.9125H26.8482H37.4618H42.2385C43.1965 27.9125 44.1088 28.3193 44.7456 29.0308L54.8754 40.3462C56.5029 42.1643 58.8798 42.6584 60.9273 41.604C62.1646 40.9669 63.122 39.8495 63.6977 38.5013C64.2426 36.961 64.2597 35.1806 64.1028 33.6492Z" fill="url(#paint0_linear)"/>
<path d="M37.5037 0.739258H26.8079H20.6613L22.4434 4.59312C22.8034 5.37166 23.5098 5.85835 24.2792 5.85835H32.0945H39.9098C40.6792 5.85835 41.3855 5.37137 41.7455 4.59312L43.5277 0.739258H37.5037Z" fill="#F8991D"/>
<path d="M47.6038 20.5448C52.0896 20.5448 55.7261 16.9083 55.7261 12.4225C55.7261 7.93675 52.0896 4.30029 47.6038 4.30029C43.118 4.30029 39.4816 7.93675 39.4816 12.4225C39.4816 16.9083 43.118 20.5448 47.6038 20.5448Z" fill="white"/>
<path d="M47.5295 11.0924C48.8289 11.0924 49.8824 10.0389 49.8824 8.73942C49.8824 7.43992 48.8289 6.38647 47.5295 6.38647C46.23 6.38647 45.1765 7.43992 45.1765 8.73942C45.1765 10.0389 46.23 11.0924 47.5295 11.0924Z" fill="#F8991D"/>
<path d="M47.5295 18.6217C48.8289 18.6217 49.8824 17.5682 49.8824 16.2687C49.8824 14.9692 48.8289 13.9158 47.5295 13.9158C46.23 13.9158 45.1765 14.9692 45.1765 16.2687C45.1765 17.5682 46.23 18.6217 47.5295 18.6217Z" fill="#F8991D"/>
<path d="M51.2941 14.857C52.5936 14.857 53.647 13.8036 53.647 12.5041C53.647 11.2046 52.5936 10.1511 51.2941 10.1511C49.9946 10.1511 48.9412 11.2046 48.9412 12.5041C48.9412 13.8036 49.9946 14.857 51.2941 14.857Z" fill="#F8991D"/>
<path d="M43.7647 14.857C45.0642 14.857 46.1176 13.8036 46.1176 12.5041C46.1176 11.2046 45.0642 10.1511 43.7647 10.1511C42.4652 10.1511 41.4117 11.2046 41.4117 12.5041C41.4117 13.8036 42.4652 14.857 43.7647 14.857Z" fill="#F8991D"/>
<path d="M16.1578 20.1173C20.4076 20.1173 23.8527 16.6722 23.8527 12.4224C23.8527 8.17266 20.4076 4.72754 16.1578 4.72754C11.908 4.72754 8.46289 8.17266 8.46289 12.4224C8.46289 16.6722 11.908 20.1173 16.1578 20.1173Z" fill="white"/>
<path d="M21.1732 10.6551H18.319V7.80067C18.319 7.53919 18.1072 7.32739 17.8457 7.32739H15.0948C14.8334 7.32739 14.6216 7.53919 14.6216 7.80067V10.6551H11.7674C11.5059 10.6551 11.2941 10.8669 11.2941 11.1284V13.8793C11.2941 14.1408 11.5059 14.3526 11.7674 14.3526H14.6218V17.2071C14.6218 17.4685 14.8336 17.6803 15.0951 17.6803H17.846C18.1075 17.6803 18.3193 17.4685 18.3193 17.2071V14.3526H21.1737C21.4352 14.3526 21.647 14.1408 21.647 13.8793V11.1284C21.6465 10.8669 21.4347 10.6551 21.1732 10.6551Z" fill="#F8991D"/>
<path d="M39.6237 26.6145C41.7798 26.6145 43.5278 24.8666 43.5278 22.7105C43.5278 20.5543 41.7798 18.8064 39.6237 18.8064C37.4675 18.8064 35.7196 20.5543 35.7196 22.7105C35.7196 24.8666 37.4675 26.6145 39.6237 26.6145Z" fill="white"/>
<path d="M24.5653 26.6145C26.7215 26.6145 28.4694 24.8666 28.4694 22.7105C28.4694 20.5543 26.7215 18.8064 24.5653 18.8064C22.4092 18.8064 20.6613 20.5543 20.6613 22.7105C20.6613 24.8666 22.4092 26.6145 24.5653 26.6145Z" fill="white"/>
</g>
<defs>
<linearGradient id="paint0_linear" x1="37.8" y1="42.1516" x2="37.8" y2="0.73999" gradientUnits="userSpaceOnUse">
<stop stop-color="#F8991D"/>
<stop offset="1" stop-color="#FDE0B4"/>
</linearGradient>
<clipPath id="clip0">
<rect width="67.7647" height="64" fill="white" transform="translate(0 0.739258)"/>
</clipPath>
</defs>
</svg>
