<svg width="64" height="64" viewBox="0 0 64 64" fill="none" xmlns="http://www.w3.org/2000/svg">
<path d="M32 0C18.56 0 7.625 10.935 7.625 24.375V28.375C7.625 29.4114 8.46362 30.25 9.5 30.25C10.5364 30.25 11.375 29.4114 11.375 28.375V24.375C11.375 13.0024 20.6274 3.75 32 3.75C43.3726 3.75 52.625 13.0024 52.625 24.375V28.375C52.625 29.4114 53.4636 30.25 54.5 30.25C55.5364 30.25 56.375 29.4114 56.375 28.375V24.375C56.375 10.935 45.44 0 32 0ZM54.5 45.25C53.4636 45.25 52.625 46.0886 52.625 47.125C52.625 52.2941 48.4191 56.5 43.25 56.5H35.75C34.7136 56.5 33.875 57.3386 33.875 58.375C33.875 59.4114 34.7136 60.25 35.75 60.25H43.25C50.4864 60.25 56.375 54.3614 56.375 47.125C56.375 46.0886 55.5364 45.25 54.5 45.25Z" fill="url(#paint0_linear)"/>
<path d="M9.5 26.5L13.52 37.913L9.5 49C4.325 49 0.125 44.8 0.125 39.625V35.875C0.125 30.7 4.325 26.5 9.5 26.5Z" fill="url(#paint1_linear)"/>
<path d="M54.5 26.5V49H47C45.9499 49 45.125 48.1749 45.125 47.125V28.375C45.125 27.3249 45.9499 26.5 47 26.5H54.5Z" fill="#FDE0B4"/>
<path d="M18.875 28.375V47.125C18.875 48.1749 18.0501 49 17 49H9.5V26.5H17C18.0501 26.5 18.875 27.3249 18.875 28.375Z" fill="#FDE0B4"/>
<path d="M63.875 35.625V39.375C63.875 44.55 59.675 49 54.5 49V26.5C59.675 26.5 63.875 30.45 63.875 35.625Z" fill="url(#paint2_linear)"/>
<path d="M32 64C28.8983 64 26.375 61.4767 26.375 58.375C26.375 55.2733 28.8983 52.75 32 52.75C35.1017 52.75 37.625 55.2733 37.625 58.375C37.625 61.4767 35.1017 64 32 64Z" fill="#FDE0B4"/>
<defs>
<linearGradient id="paint0_linear" x1="36.3333" y1="60.25" x2="36.3333" y2="1.59355e-07" gradientUnits="userSpaceOnUse">
<stop stop-color="#F8991D"/>
<stop offset="1" stop-color="#FDE0B4"/>
</linearGradient>
<linearGradient id="paint1_linear" x1="8.01317" y1="49" x2="8.01317" y2="26.5" gradientUnits="userSpaceOnUse">
<stop stop-color="#F8991D"/>
<stop offset="1" stop-color="#FDE0B4"/>
</linearGradient>
<linearGradient id="paint2_linear" x1="60.0208" y1="49" x2="60.0208" y2="26.5" gradientUnits="userSpaceOnUse">
<stop stop-color="#F8991D"/>
<stop offset="1" stop-color="#FDE0B4"/>
</linearGradient>
</defs>
</svg>
