<svg width="60" height="57" viewBox="0 0 60 57" fill="none" xmlns="http://www.w3.org/2000/svg">
<g clip-path="url(#clip0)">
<path d="M52.8516 14.9551L40.5469 11.6317L37.0312 0H12.4219C9.50941 0 7.14844 2.23185 7.14844 4.98502V51.7335C7.14844 54.4867 9.50941 56.7185 12.4219 56.7185H47.5781C50.4906 56.7185 52.8516 54.4867 52.8516 51.7335V14.9551Z" fill="url(#paint0_linear)"/>
<path d="M52.8516 14.9551H40.5469C38.6133 14.9551 37.0312 13.4596 37.0312 11.6317V0C37.4883 0 37.9453 0.166167 38.2616 0.498613L52.3241 13.792C52.6758 14.091 52.8516 14.523 52.8516 14.9551Z" fill="url(#paint1_linear)"/>
<path d="M40.5469 26.6976H19.4531C18.4815 26.6976 17.6953 25.9544 17.6953 25.0359C17.6953 24.1174 18.4815 23.3742 19.4531 23.3742H40.5469C41.5185 23.3742 42.3047 24.1174 42.3047 25.0359C42.3047 25.9544 41.5185 26.6976 40.5469 26.6976Z" fill="#FFF5F5"/>
<path d="M40.5469 33.3443H19.4531C18.4815 33.3443 17.6953 32.6011 17.6953 31.6826C17.6953 30.7641 18.4815 30.0209 19.4531 30.0209H40.5469C41.5185 30.0209 42.3047 30.7641 42.3047 31.6826C42.3047 32.6011 41.5185 33.3443 40.5469 33.3443Z" fill="#FFF5F5"/>
<path d="M40.5469 39.991H19.4531C18.4815 39.991 17.6953 39.2478 17.6953 38.3293C17.6953 37.4108 18.4815 36.6676 19.4531 36.6676H40.5469C41.5185 36.6676 42.3047 37.4108 42.3047 38.3293C42.3047 39.2478 41.5185 39.991 40.5469 39.991Z" fill="#FFF5F5"/>
<path d="M33.5156 46.6377H19.4531C18.4815 46.6377 17.6953 45.8945 17.6953 44.976C17.6953 44.0575 18.4815 43.3143 19.4531 43.3143H33.5156C34.4872 43.3143 35.2734 44.0575 35.2734 44.976C35.2734 45.8945 34.4872 46.6377 33.5156 46.6377Z" fill="#FFF5F5"/>
<path d="M30 46.6377H33.5156C34.4872 46.6377 35.2734 45.8945 35.2734 44.976C35.2734 44.0575 34.4872 43.3143 33.5156 43.3143H30V46.6377Z" fill="#FDE0B4"/>
<path d="M30 39.991H40.5469C41.5185 39.991 42.3047 39.2478 42.3047 38.3293C42.3047 37.4108 41.5185 36.6676 40.5469 36.6676H30V39.991Z" fill="#FDE0B4"/>
<path d="M30 33.3443H40.5469C41.5185 33.3443 42.3047 32.6011 42.3047 31.6826C42.3047 30.7641 41.5185 30.0209 40.5469 30.0209H30V33.3443Z" fill="#FDE0B4"/>
<path d="M30 26.6976H40.5469C41.5185 26.6976 42.3047 25.9544 42.3047 25.0359C42.3047 24.1174 41.5185 23.3742 40.5469 23.3742H30V26.6976Z" fill="#FDE0B4"/>
</g>
<defs>
<linearGradient id="paint0_linear" x1="34.0625" y1="56.7185" x2="34.0625" y2="1.50015e-07" gradientUnits="userSpaceOnUse">
<stop stop-color="#F8991D"/>
<stop offset="1" stop-color="#FDE0B4"/>
</linearGradient>
<linearGradient id="paint1_linear" x1="38.6133" y1="8.91291" x2="52.5354" y2="6.66237" gradientUnits="userSpaceOnUse">
<stop stop-color="#F8991D"/>
<stop offset="1" stop-color="#FDE0B4"/>
</linearGradient>
<clipPath id="clip0">
<rect width="60" height="56.7185" fill="white"/>
</clipPath>
</defs>
</svg>
