<svg width="130" height="130" viewBox="0 0 130 130" fill="none" xmlns="http://www.w3.org/2000/svg">
<path d="M65 130C100.899 130 130 100.899 130 65C130 29.1015 100.899 0 65 0C29.1015 0 0 29.1015 0 65C0 100.899 29.1015 130 65 130Z" fill="#F4F6F8"/>
<path d="M64.5 118C94.5995 118 119 94.2711 119 65C119 35.7289 94.5995 12 64.5 12C34.4005 12 10 35.7289 10 65C10 94.2711 34.4005 118 64.5 118Z" fill="white"/>
<path d="M63.125 44.25H66.875C67.9105 44.25 68.75 43.4105 68.75 42.375C68.75 41.3395 67.9105 40.5 66.875 40.5H63.125C62.0895 40.5 61.25 41.3395 61.25 42.375C61.25 43.4105 62.0895 44.25 63.125 44.25ZM66.875 85.75H63.125C62.0895 85.75 61.25 86.5895 61.25 87.625C61.25 88.6605 62.0895 89.5 63.125 89.5H66.875C67.9105 89.5 68.75 88.6605 68.75 87.625C68.75 86.5895 67.9105 85.75 66.875 85.75ZM69.6514 55.75C67.8404 55.75 66.247 56.4867 65 57.8906C63.7529 56.4867 62.1596 55.75 60.3486 55.75C56.689 55.75 53.8223 58.7915 53.8223 62.6742C53.8223 66.75 56.9911 69.4245 61.3769 73.1263C62.1421 73.7721 62.9334 74.44 63.7721 75.1669C64.1245 75.4722 64.5623 75.625 65.0001 75.625C65.438 75.625 65.8758 75.4724 66.2281 75.1669C67.071 74.4364 67.8606 73.7687 68.6241 73.123C73.1729 69.2766 76.178 66.7355 76.178 62.6741C76.1779 58.7915 73.3111 55.75 69.6514 55.75Z" fill="white"/>
<g clip-path="url(#clip0)">
<path d="M87.4141 33.0859H42.5859C33.9916 33.0859 27 40.0776 27 48.6719V73.7497C27 82.344 33.9916 89.3356 42.5859 89.3356H44.8989L50.3198 96.213C50.7425 96.7488 51.3867 97.0613 52.0685 97.0613C52.7504 97.0613 53.3952 96.7488 53.8173 96.213L59.2382 89.3356H87.4141C96.0084 89.3356 103 82.344 103 73.7497V48.6719C103 40.0776 96.0084 33.0859 87.4141 33.0859V33.0859Z" fill="#98D9A2"/>
<path d="M56.6516 92.6176L59.2383 89.3357L56.6516 92.6176Z" fill="white"/>
<path d="M103 51.3814H84.2789L98.2146 37.4457C95.4111 34.7477 91.6034 33.0859 87.4141 33.0859H83.6817L74.8328 41.9348V33.0859H55.1678V41.9348L46.3189 33.0859H42.5859C38.3966 33.0859 34.5889 34.7477 31.7854 37.4457L45.7211 51.3814H27V71.0465H45.7211L32.3084 84.4586L31.7883 84.9788C34.5918 87.6756 38.3984 89.3356 42.5859 89.3356H44.8989L45.5274 90.1329L54.9289 80.7309L54.7764 89.3356H74.8322V80.5175L83.6214 89.3356H87.4141C91.5836 89.3356 95.3758 87.6901 98.1752 85.0141L97.651 84.4876L84.2545 71.0465H103V51.3814Z" fill="white"/>
<path d="M70.3791 55.8346V33.0859H59.6209V55.8346H27V66.5934H59.6209L59.2382 89.3356H70.3791V66.5934H103V55.8346H70.3791Z" fill="url(#paint0_linear)"/>
<path d="M56.6515 52.8653V49.7168L40.2028 33.2681C38.5161 33.5278 36.9174 34.0595 35.4534 34.8162L53.503 52.8653H56.6515Z" fill="url(#paint1_linear)"/>
<path d="M94.5465 34.8162C93.0825 34.0595 91.4839 33.5278 89.7971 33.2681L73.3484 49.7168V52.8653H76.4969L94.5465 34.8162Z" fill="url(#paint2_linear)"/>
<path d="M35.4575 87.6077C36.9222 88.3638 38.5208 88.895 40.2081 89.1547L56.6516 72.7106V69.5621H53.5031L35.4575 87.6077Z" fill="url(#paint3_linear)"/>
<path d="M73.3484 69.5621V72.7199L89.7357 89.1628C91.4259 88.9089 93.0285 88.3835 94.4967 87.6315L76.4882 69.5621H73.3484Z" fill="url(#paint4_linear)"/>
</g>
<defs>
<linearGradient id="paint0_linear" x1="65" y1="89.3356" x2="65" y2="33.0859" gradientUnits="userSpaceOnUse">
<stop stop-color="#00B342"/>
<stop offset="1" stop-color="#98D9A2"/>
</linearGradient>
<linearGradient id="paint1_linear" x1="45.5556" y1="52.8653" x2="45.5556" y2="33.1958" gradientUnits="userSpaceOnUse">
<stop stop-color="#F8991D"/>
<stop offset="1" stop-color="#FDE0B4"/>
</linearGradient>
<linearGradient id="paint2_linear" x1="83.4506" y1="52.8653" x2="83.4506" y2="33.1958" gradientUnits="userSpaceOnUse">
<stop stop-color="#F8991D"/>
<stop offset="1" stop-color="#FDE0B4"/>
</linearGradient>
<linearGradient id="paint3_linear" x1="45.5578" y1="89.1547" x2="45.5578" y2="69.4898" gradientUnits="userSpaceOnUse">
<stop stop-color="#F8991D"/>
<stop offset="1" stop-color="#FDE0B4"/>
</linearGradient>
<linearGradient id="paint4_linear" x1="83.4269" y1="89.1628" x2="83.4269" y2="69.4898" gradientUnits="userSpaceOnUse">
<stop stop-color="#F8991D"/>
<stop offset="1" stop-color="#FDE0B4"/>
</linearGradient>
<clipPath id="clip0">
<rect width="76" height="76" fill="white" transform="translate(27 27)"/>
</clipPath>
</defs>
</svg>
