<svg width="130" height="130" viewBox="0 0 130 130" fill="none" xmlns="http://www.w3.org/2000/svg">
<path d="M65 130C100.899 130 130 100.899 130 65C130 29.1015 100.899 0 65 0C29.1015 0 0 29.1015 0 65C0 100.899 29.1015 130 65 130Z" fill="#F4F6F8"/>
<path d="M64.5 118C94.5995 118 119 94.2711 119 65C119 35.7289 94.5995 12 64.5 12C34.4005 12 10 35.7289 10 65C10 94.2711 34.4005 118 64.5 118Z" fill="white"/>
<path d="M63.125 44.25H66.875C67.9105 44.25 68.75 43.4105 68.75 42.375C68.75 41.3395 67.9105 40.5 66.875 40.5H63.125C62.0895 40.5 61.25 41.3395 61.25 42.375C61.25 43.4105 62.0895 44.25 63.125 44.25ZM66.875 85.75H63.125C62.0895 85.75 61.25 86.5895 61.25 87.625C61.25 88.6605 62.0895 89.5 63.125 89.5H66.875C67.9105 89.5 68.75 88.6605 68.75 87.625C68.75 86.5895 67.9105 85.75 66.875 85.75ZM69.6514 55.75C67.8404 55.75 66.247 56.4867 65 57.8906C63.7529 56.4867 62.1596 55.75 60.3486 55.75C56.689 55.75 53.8223 58.7915 53.8223 62.6742C53.8223 66.75 56.9911 69.4245 61.3769 73.1263C62.1421 73.7721 62.9334 74.44 63.7721 75.1669C64.1245 75.4722 64.5623 75.625 65.0001 75.625C65.438 75.625 65.8758 75.4724 66.2281 75.1669C67.071 74.4364 67.8606 73.7687 68.6241 73.123C73.1729 69.2766 76.178 66.7355 76.178 62.6741C76.1779 58.7915 73.3111 55.75 69.6514 55.75Z" fill="white"/>
<g clip-path="url(#clip0)">
<path d="M93.3125 65.2813C85.625 52.046 57.4375 60.1563 57.4375 60.1563L71.4159 67.8438L93.3125 65.2813Z" fill="#C1E8C6"/>
<path d="M43.3438 97.3125H76.6562V103.719H43.3438V97.3125Z" fill="#008121"/>
<path d="M45.9062 101.156H74.0938V99.875H45.9062V101.156Z" fill="#00922D"/>
<path d="M30.5312 65.2813C30.5312 65.2813 38.2188 56.3125 45.9062 57.5938C53.5938 58.875 72.8125 65.2813 72.8125 65.2813H30.5312Z" fill="#E5F6E8"/>
<path d="M22.8437 46.0625C22.8437 46.0625 21.5624 55.0313 34.3749 53.75C34.3749 53.75 33.0937 42.2188 22.8437 46.0625Z" fill="#3BB03C"/>
<path d="M25.5215 47.9588C25.6854 48.6093 26.0167 49.2057 26.4824 49.6885C27.7618 50.7605 29.3878 51.3298 31.0565 51.29C30.6261 50.1201 29.8482 49.1097 28.8271 48.3944C27.8177 47.8433 26.6392 47.688 25.5215 47.9588Z" fill="#3BB03C"/>
<path d="M84.0234 52.7507C84.0234 52.7507 91.6084 57.7091 95.875 45.5629C95.875 45.5629 84.8819 41.8344 84.0234 52.7507Z" fill="#3BB03C"/>
<path d="M86.9062 51.1235C87.565 51.2495 88.2452 51.2009 88.8794 50.9826C90.3963 50.2773 91.6036 49.0427 92.2747 47.5104C91.0343 47.4071 89.7918 47.6842 88.7128 48.3048C87.7807 48.9867 87.1365 49.9918 86.9062 51.1235Z" fill="#3BB03C"/>
<path d="M98.4375 65.2812V74.25C98.4375 80.3666 96.0077 86.2326 91.6826 90.5576C87.3576 94.8827 81.4916 97.3125 75.375 97.3125H44.625C38.5084 97.3125 32.6424 94.8827 28.3173 90.5576C23.9923 86.2326 21.5625 80.3666 21.5625 74.25V65.2812H98.4375Z" fill="url(#paint0_linear)"/>
<path d="M39.5001 35.8125C39.1603 35.8329 38.8263 35.7174 38.5716 35.4916C38.3169 35.2657 38.1623 34.9479 38.142 34.6081C38.1216 34.2683 38.237 33.9343 38.4629 33.6796C38.6887 33.4249 39.0065 33.2704 39.3463 33.25L99.5651 25.5625C99.9049 25.52 100.248 25.6142 100.518 25.8245C100.788 26.0347 100.964 26.3438 101.006 26.6836C101.049 27.0234 100.955 27.3661 100.744 27.6364C100.534 27.9068 100.225 28.0825 99.8854 28.125L39.6666 35.8125H39.5001Z" fill="#E76F15"/>
<path d="M35.6562 42.2188C35.3164 42.2188 34.9906 42.0838 34.7503 41.8435C34.51 41.6032 34.375 41.2773 34.375 40.9375C34.375 40.5977 34.51 40.2718 34.7503 40.0315C34.9906 39.7912 35.3164 39.6562 35.6562 39.6562L99.7188 38.375C100.059 38.375 100.384 38.51 100.625 38.7503C100.865 38.9906 101 39.3164 101 39.6562C101 39.9961 100.865 40.3219 100.625 40.5622C100.384 40.8025 100.059 40.9375 99.7188 40.9375L35.6562 42.2188Z" fill="#E76F15"/>
<path d="M54.875 64C54.5352 64 54.2093 63.865 53.969 63.6247C53.7287 63.3845 53.5938 63.0586 53.5938 62.7188V37.0938C53.5938 36.7539 53.7287 36.4281 53.969 36.1878C54.2093 35.9475 54.5352 35.8125 54.875 35.8125C55.2148 35.8125 55.5407 35.9475 55.781 36.1878C56.0213 36.4281 56.1562 36.7539 56.1562 37.0938V62.7188C56.1562 63.0586 56.0213 63.3845 55.781 63.6247C55.5407 63.865 55.2148 64 54.875 64Z" fill="#E5F6E8"/>
<path d="M47.0337 62.7188C46.6939 62.7188 46.368 62.5838 46.1277 62.3435C45.8874 62.1032 45.7524 61.7773 45.7524 61.4375V29.4062C45.7524 29.0664 45.8874 28.7406 46.1277 28.5003C46.368 28.26 46.6939 28.125 47.0337 28.125C47.3735 28.125 47.6994 28.26 47.9397 28.5003C48.18 28.7406 48.3149 29.0664 48.3149 29.4062V61.4375C48.3149 61.7773 48.18 62.1032 47.9397 62.3435C47.6994 62.5838 47.3735 62.7188 47.0337 62.7188Z" fill="#E5F6E8"/>
<path d="M62.5625 65.2812C62.2227 65.2812 61.8968 65.1463 61.6565 64.906C61.4162 64.6657 61.2812 64.3398 61.2812 64V26.8438C61.2812 26.5039 61.4162 26.1781 61.6565 25.9378C61.8968 25.6975 62.2227 25.5625 62.5625 25.5625C62.9023 25.5625 63.2282 25.6975 63.4685 25.9378C63.7088 26.1781 63.8438 26.5039 63.8438 26.8438V64C63.8438 64.3398 63.7088 64.6657 63.4685 64.906C63.2282 65.1463 62.9023 65.2812 62.5625 65.2812Z" fill="#E5F6E8"/>
<path d="M35.6562 75.5312H34.375C34.0352 75.5312 33.7093 75.3963 33.469 75.156C33.2287 74.9157 33.0938 74.5898 33.0938 74.25C33.0938 73.9102 33.2287 73.5843 33.469 73.344C33.7093 73.1037 34.0352 72.9688 34.375 72.9688H35.6562C35.9961 72.9688 36.3219 73.1037 36.5622 73.344C36.8025 73.5843 36.9375 73.9102 36.9375 74.25C36.9375 74.5898 36.8025 74.9157 36.5622 75.156C36.3219 75.3963 35.9961 75.5312 35.6562 75.5312Z" fill="#00B342"/>
<path d="M40.7812 75.5312H39.5C39.1602 75.5312 38.8343 75.3963 38.594 75.156C38.3537 74.9157 38.2188 74.5898 38.2188 74.25C38.2188 73.9102 38.3537 73.5843 38.594 73.344C38.8343 73.1037 39.1602 72.9688 39.5 72.9688H40.7812C41.1211 72.9688 41.447 73.1037 41.6872 73.344C41.9275 73.5843 42.0625 73.9102 42.0625 74.25C42.0625 74.5898 41.9275 74.9157 41.6872 75.156C41.447 75.3963 41.1211 75.5312 40.7812 75.5312Z" fill="#00B342"/>
</g>
<defs>
<linearGradient id="paint0_linear" x1="60" y1="97.3125" x2="60" y2="65.2812" gradientUnits="userSpaceOnUse">
<stop stop-color="#00B342"/>
<stop offset="1" stop-color="#98D9A2"/>
</linearGradient>
<clipPath id="clip0">
<rect width="82" height="82" fill="white" transform="translate(19 23)"/>
</clipPath>
</defs>
</svg>
