<svg width="130" height="130" viewBox="0 0 130 130" fill="none" xmlns="http://www.w3.org/2000/svg">
<path d="M65 130C100.899 130 130 100.899 130 65C130 29.1015 100.899 0 65 0C29.1015 0 0 29.1015 0 65C0 100.899 29.1015 130 65 130Z" fill="#F4F6F8"/>
<path d="M64.5 118C94.5995 118 119 94.2711 119 65C119 35.7289 94.5995 12 64.5 12C34.4005 12 10 35.7289 10 65C10 94.2711 34.4005 118 64.5 118Z" fill="white"/>
<path d="M63.125 44.25H66.875C67.9105 44.25 68.75 43.4105 68.75 42.375C68.75 41.3395 67.9105 40.5 66.875 40.5H63.125C62.0895 40.5 61.25 41.3395 61.25 42.375C61.25 43.4105 62.0895 44.25 63.125 44.25ZM66.875 85.75H63.125C62.0895 85.75 61.25 86.5895 61.25 87.625C61.25 88.6605 62.0895 89.5 63.125 89.5H66.875C67.9105 89.5 68.75 88.6605 68.75 87.625C68.75 86.5895 67.9105 85.75 66.875 85.75ZM69.6514 55.75C67.8404 55.75 66.247 56.4867 65 57.8906C63.7529 56.4867 62.1596 55.75 60.3486 55.75C56.689 55.75 53.8223 58.7915 53.8223 62.6742C53.8223 66.75 56.9911 69.4245 61.3769 73.1263C62.1421 73.7721 62.9334 74.44 63.7721 75.1669C64.1245 75.4722 64.5623 75.625 65.0001 75.625C65.438 75.625 65.8758 75.4724 66.2281 75.1669C67.071 74.4364 67.8606 73.7687 68.6241 73.123C73.1729 69.2766 76.178 66.7355 76.178 62.6741C76.1779 58.7915 73.3111 55.75 69.6514 55.75Z" fill="white"/>
<g clip-path="url(#clip0)">
<path d="M112 59.7098V72.2564C112 73.3557 111.108 74.2479 110.009 74.2479H105.601C103.837 80.1568 100.154 85.4562 95.088 89.2023C94.5782 89.5787 94.2755 90.1722 94.2755 90.8055V96.7522C94.2755 99.3909 92.1346 101.532 89.4958 101.532H82.5255C79.8867 101.532 77.7458 99.3909 77.7458 96.7522C77.7458 95.6528 76.8536 94.7606 75.7543 94.7606H60.0213C58.9219 94.7606 58.0297 95.6528 58.0297 96.7522C58.0297 99.3911 55.8868 101.532 53.2501 101.532H46.2797C43.641 101.532 41.5001 99.3909 41.5001 96.7522V90.7955C41.5001 90.1682 41.2013 89.5787 40.6995 89.2023C22.4471 75.5119 26.6429 47.3667 47.4746 39.2967H47.4786C47.636 29.9743 55.2416 22.4683 64.6018 22.4683C74.1292 22.4683 80.5778 29.6298 81.5954 37.5819L81.6194 37.578C85.4809 38.044 89.0916 39.2767 92.3019 41.099C96.5699 36.1793 103.951 41.3981 104.11 45.5162C104.171 47.0835 103.255 48.605 101.867 49.8936C103.245 51.905 104.361 54.0937 105.173 56.3999C105.454 57.1925 106.207 57.7183 107.047 57.7183H110.009C111.108 57.7183 112 58.6105 112 59.7098Z" fill="url(#paint0_linear)"/>
<path d="M75.583 52.7394H53.6205C49.4066 49.216 47.2922 43.9592 47.4786 39.2967C47.636 29.9743 55.2416 22.4683 64.6018 22.4683C80.5254 22.4683 87.8528 42.4775 75.583 52.7394Z" fill="url(#paint1_linear)"/>
<path d="M104.11 45.5161C104.312 50.6496 94.0169 55.2927 91.0611 52.8788C88.2956 50.6192 89.8351 40.4485 95.2851 39.2149C99.0989 38.3526 103.976 42.0608 104.11 45.5161Z" fill="url(#paint2_linear)"/>
<path d="M29.1525 67.6759H26.4202C23.6595 67.6759 21.4135 65.4298 21.4135 62.6692C21.4135 61.6654 20.5969 60.8489 19.5932 60.8489C18.7134 60.8489 18 60.1356 18 59.2557C18 58.3758 18.7134 57.6625 19.5932 57.6625C22.3539 57.6625 24.5999 59.9085 24.5999 62.6692C24.5999 63.6729 25.4164 64.4894 26.4202 64.4894H29.1366C30.0165 64.4894 30.7378 65.2028 30.7378 66.0826C30.7378 66.9625 30.0324 67.6759 29.1525 67.6759Z" fill="#98D9A2"/>
<path d="M81.7288 54.3327H47.4746C46.5947 54.3327 45.8813 53.6193 45.8813 52.7395C45.8813 51.8596 46.5947 51.1462 47.4746 51.1462H81.7288C82.6087 51.1462 83.322 51.8596 83.322 52.7395C83.322 53.6193 82.6087 54.3327 81.7288 54.3327Z" fill="white"/>
</g>
<defs>
<linearGradient id="paint0_linear" x1="70.5719" y1="101.532" x2="70.5719" y2="38.5" gradientUnits="userSpaceOnUse">
<stop stop-color="#00B342"/>
<stop offset="1" stop-color="#C5EFCC"/>
</linearGradient>
<linearGradient id="paint1_linear" x1="63.7987" y1="52.7394" x2="63.7987" y2="22.3566" gradientUnits="userSpaceOnUse">
<stop stop-color="#F8991D"/>
<stop offset="1" stop-color="#FDE0B4"/>
</linearGradient>
<linearGradient id="paint2_linear" x1="96.9139" y1="53.5356" x2="96.9139" y2="39.0885" gradientUnits="userSpaceOnUse">
<stop stop-color="#00B342"/>
<stop offset="1" stop-color="#98D9A2"/>
</linearGradient>
<clipPath id="clip0">
<rect width="94" height="94" fill="white" transform="translate(18 15)"/>
</clipPath>
</defs>
</svg>
