<svg width="60" height="60" viewBox="0 0 60 60" fill="none" xmlns="http://www.w3.org/2000/svg">
<path d="M30 56.3672C27.7066 56.3672 25.7531 54.8978 25.0287 52.8516H1.75781C0.786211 52.8516 0 52.0654 0 51.0938V8.90625C0 7.93465 0.786211 7.14844 1.75781 7.14844H8.90625C9.87785 7.14844 10.6641 7.93465 10.6641 8.90625V40.7821C12.6313 39.7813 15.5667 38.7891 19.4531 38.7891C24.7472 38.7891 28.2696 40.6293 30 41.8257C31.7304 40.6293 35.2528 38.7891 40.5469 38.7891C44.4333 38.7891 47.3687 39.7813 49.3359 40.7821V8.90625C49.3359 7.93465 50.1221 7.14844 51.0938 7.14844H58.2422C59.2138 7.14844 60 7.93465 60 8.90625V51.0938C60 52.0654 59.2138 52.8516 58.2422 52.8516H34.9713C34.2469 54.8978 32.2934 56.3672 30 56.3672Z" fill="url(#paint0_linear)"/>
<path d="M49.851 45.3053C49.7341 45.1921 46.6821 42.3047 40.5469 42.3047C34.4116 42.3047 31.3596 45.1921 31.2326 45.3156C30.546 45.9851 29.437 45.9833 28.7572 45.3053C28.6404 45.1921 25.5884 42.3047 19.4531 42.3047C13.3179 42.3047 10.2659 45.1921 10.1388 45.3156C9.6341 45.8065 8.88223 45.9525 8.22656 45.6761C7.57418 45.4015 7.14844 44.7681 7.14844 44.0625V8.90625C7.14844 5.98734 15.282 3.63281 19.4531 3.63281C24.7472 3.63281 28.2696 5.47301 30 6.66949C31.7304 5.47301 35.2528 3.63281 40.5469 3.63281C44.9032 3.63281 52.8516 6.08437 52.8516 8.90625V44.0625C52.8516 44.7731 52.4224 45.4152 51.7666 45.6864C51.1276 45.9552 50.3623 45.8167 49.851 45.3053Z" fill="#FEF3E1"/>
<defs>
<linearGradient id="paint0_linear" x1="6" y1="36.4818" x2="58.3636" y2="26.7273" gradientUnits="userSpaceOnUse">
<stop stop-color="#F8991D"/>
<stop offset="1" stop-color="#FDE0B4"/>
</linearGradient>
</defs>
</svg>
