<svg width="61" height="63" viewBox="0 0 61 63" fill="none" xmlns="http://www.w3.org/2000/svg">
<g clip-path="url(#clip0)">
<path d="M25.1775 41.6295C31.9516 41.6295 40.5859 37.5471 41.6341 36.8472C42.0157 36.5924 42.2072 36.1404 42.1314 35.6782C41.7932 33.6158 40.8234 27.5401 39.9783 15.529C39.3026 5.92449 33.3518 0 25.1775 0C17.0032 0 11.0527 5.92449 10.3767 15.529C9.53156 27.5401 8.56195 33.6157 8.22363 35.6782C8.14781 36.1404 8.3393 36.5924 8.72086 36.8472C9.76922 37.547 18.4034 41.6295 25.1775 41.6295Z" fill="url(#paint0_linear)"/>
<path d="M42.1313 35.6781C41.793 33.6157 40.8233 27.54 39.9783 15.5288C39.3023 5.92437 33.3517 0 25.1774 0C25.1585 0 25.1398 0 25.1209 0.000122953C19.9836 0.0180741 17.0169 6.38175 20.173 10.6347C20.9789 11.7207 21.7458 12.3478 21.7458 12.3478C21.7458 12.3478 23.7117 27.9242 25.4829 41.6186C32.209 41.501 40.6013 37.5367 41.6339 36.8472C42.0156 36.5924 42.2071 36.1403 42.1313 35.6781Z" fill="url(#paint1_linear)"/>
<path d="M44.5324 54.829V49.7079C44.5324 47.2709 43.1481 45.0684 41.0132 44.1084L32.7435 40.39C31.6761 39.91 30.984 38.8087 30.984 37.5903V32.4914H19.371V37.5903C19.371 38.8087 18.6789 39.91 17.6115 40.39L9.34189 44.1085C7.20697 45.0685 5.82275 47.271 5.82275 49.708V54.8291C5.82275 55.3899 6.256 55.8445 6.79049 55.8445H43.5646C44.0991 55.8445 44.5324 55.3898 44.5324 54.829Z" fill="url(#paint2_linear)"/>
<path d="M41.0132 44.1084L33.6541 40.7993C32.2619 44.2694 28.9913 46.7063 25.1776 46.7063C21.3638 46.7063 18.0932 44.2694 16.701 40.7993L9.34189 44.1084C7.20697 45.0684 5.82275 47.271 5.82275 49.7079V54.829C5.82275 55.3897 6.256 55.8444 6.79049 55.8444H43.5646C44.099 55.8444 44.5324 55.3897 44.5324 54.829V49.7079C44.5324 47.271 43.148 45.0684 41.0132 44.1084Z" fill="url(#paint3_linear)"/>
<path d="M41.0131 44.1084L36.1771 41.9338L33.6539 40.7993C32.2618 44.2694 28.9912 46.7063 25.1774 46.7063C21.3637 46.7063 18.0931 44.2694 16.7009 40.7993L14.031 41.9999C15.8672 46.5555 20.1665 49.7523 25.1774 49.7523C27.4955 49.7523 29.6583 49.0646 31.4972 47.8768C31.9312 47.5964 32.4764 48.0236 32.3482 48.5411C32.0918 49.5771 31.9516 50.6616 31.9516 51.783C31.9516 53.201 32.1702 54.5641 32.5647 55.8444H43.5644C44.0989 55.8444 44.5321 55.3898 44.5321 54.829V49.7079C44.5323 47.271 43.1481 45.0684 41.0131 44.1084Z" fill="#FDE0B4"/>
<path d="M44.5323 62.9519C50.4115 62.9519 55.1776 57.9514 55.1776 51.7829C55.1776 45.6144 50.4115 40.6138 44.5323 40.6138C38.653 40.6138 33.887 45.6144 33.887 51.7829C33.887 57.9514 38.653 62.9519 44.5323 62.9519Z" fill="url(#paint4_linear)"/>
<path d="M43.5647 57.1136C43.2547 57.1136 42.9457 56.9897 42.7094 56.7418L38.8385 52.6804C38.366 52.1847 38.366 51.3814 38.8385 50.8857C39.311 50.3899 40.0766 50.3899 40.5491 50.8857L43.5648 54.0498L49.4837 47.8396C49.9562 47.3439 50.7218 47.3439 51.1943 47.8396C51.6668 48.3354 51.6668 49.1386 51.1943 49.6344L44.4201 56.7418C44.1837 56.9897 43.8746 57.1136 43.5647 57.1136Z" fill="white"/>
<path d="M7.51225 45.4328C6.45674 46.5524 5.82275 48.0724 5.82275 49.708V54.8291C5.82275 55.3899 6.256 55.8445 6.79049 55.8445H13.5646V53.4653C13.5646 52.3882 13.1568 51.3551 12.4308 50.5935L7.51225 45.4328Z" fill="#FDE0B4"/>
<path d="M35.5873 17.8052C31.887 14.1043 24.7644 12.7638 21.7461 12.3478C20.942 12.237 20.1697 12.6717 19.7922 13.4248C18.2156 16.5687 15.6438 18.7765 14.3543 19.7493C13.8542 20.1267 13.5647 20.7395 13.5647 21.3858V21.9337C13.5647 28.6424 18.5671 34.3972 24.9601 34.5199C31.4733 34.645 36.7906 29.1428 36.7906 22.3377V20.7589C36.7906 19.6432 36.357 18.575 35.5873 17.8052Z" fill="#FEEAD0"/>
</g>
<defs>
<linearGradient id="paint0_linear" x1="28.1944" y1="41.6295" x2="28.1944" y2="1.10106e-07" gradientUnits="userSpaceOnUse">
<stop stop-color="#F8991D"/>
<stop offset="1" stop-color="#FDE0B4"/>
</linearGradient>
<linearGradient id="paint1_linear" x1="32.58" y1="41.6186" x2="32.58" y2="1.10077e-07" gradientUnits="userSpaceOnUse">
<stop stop-color="#F8991D"/>
<stop offset="1" stop-color="#FDE0B4"/>
</linearGradient>
<linearGradient id="paint2_linear" x1="28.6184" y1="55.8445" x2="28.6184" y2="32.4914" gradientUnits="userSpaceOnUse">
<stop stop-color="#F8991D"/>
<stop offset="1" stop-color="#FDE0B4"/>
</linearGradient>
<linearGradient id="paint3_linear" x1="9.69371" y1="49.7659" x2="39.9689" y2="37.8625" gradientUnits="userSpaceOnUse">
<stop stop-color="#F8991D"/>
<stop offset="1" stop-color="#FDE0B4"/>
</linearGradient>
<linearGradient id="paint4_linear" x1="46.4248" y1="62.9519" x2="46.4248" y2="40.6138" gradientUnits="userSpaceOnUse">
<stop stop-color="#F8991D"/>
<stop offset="1" stop-color="#FDE0B4"/>
</linearGradient>
<clipPath id="clip0">
<rect width="60" height="62.9519" fill="white" transform="translate(0.5)"/>
</clipPath>
</defs>
</svg>
