<svg width="61" height="60" viewBox="0 0 61 60" fill="none" xmlns="http://www.w3.org/2000/svg">
<path d="M51.5938 60H9.40625C8.43465 60 7.64844 59.2138 7.64844 58.2422V5.50781C7.64844 4.53621 8.43465 3.75 9.40625 3.75H51.5938C52.5654 3.75 53.3516 4.53621 53.3516 5.50781V58.2422C53.3516 59.2138 52.5654 60 51.5938 60Z" fill="url(#paint0_linear)"/>
<path d="M16.4375 0C15.4659 0 14.6797 0.786211 14.6797 1.75781V9.02344C14.6797 9.99504 15.4659 10.7812 16.4375 10.7812C17.4091 10.7812 18.1953 9.99504 18.1953 9.02344V1.75781C18.1953 0.786211 17.4091 0 16.4375 0ZM30.5 10.7812C31.4716 10.7812 32.2578 9.99504 32.2578 9.02344V1.75781C32.2578 0.786211 31.4716 0 30.5 0C29.5284 0 28.7422 0.786211 28.7422 1.75781V9.02344C28.7422 9.99504 29.5284 10.7812 30.5 10.7812ZM44.5625 0C43.5909 0 42.8047 0.786211 42.8047 1.75781V9.02344C42.8047 9.99504 43.5909 10.7812 44.5625 10.7812C45.5341 10.7812 46.3203 9.99504 46.3203 9.02344V1.75781C46.3203 0.786211 45.5341 0 44.5625 0ZM16.4375 21.3281C15.4667 21.3281 14.6797 22.1152 14.6797 23.0859C14.6797 24.0567 15.4667 24.8438 16.4375 24.8438C17.4083 24.8438 18.1953 24.0567 18.1953 23.0859C18.1953 22.1152 17.4083 21.3281 16.4375 21.3281ZM44.5625 21.3281H23.4688C22.4971 21.3281 21.7109 22.1143 21.7109 23.0859C21.7109 24.0575 22.4971 24.8438 23.4688 24.8438H44.5625C45.5341 24.8438 46.3203 24.0575 46.3203 23.0859C46.3203 22.1143 45.5341 21.3281 44.5625 21.3281ZM16.4375 31.875C15.4667 31.875 14.6797 32.662 14.6797 33.6328C14.6797 34.6036 15.4667 35.3906 16.4375 35.3906C17.4083 35.3906 18.1953 34.6036 18.1953 33.6328C18.1953 32.662 17.4083 31.875 16.4375 31.875ZM44.5625 31.875H23.4688C22.4971 31.875 21.7109 32.6612 21.7109 33.6328C21.7109 34.6044 22.4971 35.3906 23.4688 35.3906H44.5625C45.5341 35.3906 46.3203 34.6044 46.3203 33.6328C46.3203 32.6612 45.5341 31.875 44.5625 31.875ZM16.4375 42.4219C15.4667 42.4219 14.6797 43.2089 14.6797 44.1797C14.6797 45.1505 15.4667 45.9375 16.4375 45.9375C17.4083 45.9375 18.1953 45.1505 18.1953 44.1797C18.1953 43.2089 17.4083 42.4219 16.4375 42.4219ZM44.5625 42.4219H23.4688C22.4971 42.4219 21.7109 43.2081 21.7109 44.1797C21.7109 45.1513 22.4971 45.9375 23.4688 45.9375H44.5625C45.5341 45.9375 46.3203 45.1513 46.3203 44.1797C46.3203 43.2081 45.5341 42.4219 44.5625 42.4219Z" fill="#FEF3E1"/>
<defs>
<linearGradient id="paint0_linear" x1="34.5625" y1="60" x2="34.5625" y2="3.75" gradientUnits="userSpaceOnUse">
<stop stop-color="#F8991D"/>
<stop offset="1" stop-color="#FDE0B4"/>
</linearGradient>
</defs>
</svg>
