<svg width="130" height="130" viewBox="0 0 130 130" fill="none" xmlns="http://www.w3.org/2000/svg">
<path d="M65 130C100.899 130 130 100.899 130 65C130 29.1015 100.899 0 65 0C29.1015 0 0 29.1015 0 65C0 100.899 29.1015 130 65 130Z" fill="#F4F6F8"/>
<path d="M64.5 118C94.5995 118 119 94.2711 119 65C119 35.7289 94.5995 12 64.5 12C34.4005 12 10 35.7289 10 65C10 94.2711 34.4005 118 64.5 118Z" fill="white"/>
<path d="M63.125 44.25H66.875C67.9105 44.25 68.75 43.4105 68.75 42.375C68.75 41.3395 67.9105 40.5 66.875 40.5H63.125C62.0895 40.5 61.25 41.3395 61.25 42.375C61.25 43.4105 62.0895 44.25 63.125 44.25ZM66.875 85.75H63.125C62.0895 85.75 61.25 86.5895 61.25 87.625C61.25 88.6605 62.0895 89.5 63.125 89.5H66.875C67.9105 89.5 68.75 88.6605 68.75 87.625C68.75 86.5895 67.9105 85.75 66.875 85.75ZM69.6514 55.75C67.8404 55.75 66.247 56.4867 65 57.8906C63.7529 56.4867 62.1596 55.75 60.3486 55.75C56.689 55.75 53.8223 58.7915 53.8223 62.6742C53.8223 66.75 56.9911 69.4245 61.3769 73.1263C62.1421 73.7721 62.9334 74.44 63.7721 75.1669C64.1245 75.4722 64.5623 75.625 65.0001 75.625C65.438 75.625 65.8758 75.4724 66.2281 75.1669C67.071 74.4364 67.8606 73.7687 68.6241 73.123C73.1729 69.2766 76.178 66.7355 76.178 62.6741C76.1779 58.7915 73.3111 55.75 69.6514 55.75Z" fill="white"/>
<path d="M100.273 90.8477H29.7266V40.8086H100.273V90.8477Z" fill="url(#paint0_linear)"/>
<path d="M102.078 95.7695H27.9219C25.2035 95.7695 23 93.566 23 90.8477V85.9258H107V90.8477C107 93.566 104.796 95.7695 102.078 95.7695Z" fill="#008121"/>
<path d="M95.3516 45.7305H34.6484V81.0039H95.3516V45.7305Z" fill="white"/>
<path d="M88.9531 14.2305C79.0021 14.2305 70.9062 21.2958 70.9062 29.9805C70.9062 35.6267 74.3288 40.5874 79.4577 43.3683C77.8927 45.5249 76.1275 47.527 74.1875 49.3448C79.1063 48.9379 83.7822 47.6763 88.0685 45.7114C88.3617 45.7239 88.6565 45.7305 88.9531 45.7305C98.9042 45.7305 107 38.6651 107 29.9805C107 21.2958 98.9042 14.2305 88.9531 14.2305Z" fill="url(#paint1_linear)"/>
<path d="M65 62.1367C62.2816 62.1367 60.0781 59.9332 60.0781 57.2148V53.9336C60.0781 51.2152 62.2816 49.0117 65 49.0117C67.7184 49.0117 69.9219 51.2152 69.9219 53.9336V57.2148C69.9219 59.9332 67.7184 62.1367 65 62.1367Z" fill="url(#paint2_linear)"/>
<path d="M65 63.7773C57.7512 63.7773 51.875 69.6536 51.875 76.9023H78.125C78.125 69.6536 72.2488 63.7773 65 63.7773Z" fill="url(#paint3_linear)"/>
<defs>
<linearGradient id="paint0_linear" x1="95.5" y1="63.5" x2="31.5" y2="63.5" gradientUnits="userSpaceOnUse">
<stop stop-color="#00B342"/>
<stop offset="1" stop-color="#98D9A2"/>
</linearGradient>
<linearGradient id="paint1_linear" x1="85" y1="47.5" x2="99.2969" y2="18.3823" gradientUnits="userSpaceOnUse">
<stop stop-color="#F8991D"/>
<stop offset="1" stop-color="#FDE0B4"/>
</linearGradient>
<linearGradient id="paint2_linear" x1="65" y1="62.1367" x2="65" y2="49.0117" gradientUnits="userSpaceOnUse">
<stop stop-color="#00B342"/>
<stop offset="1" stop-color="#98D9A2"/>
</linearGradient>
<linearGradient id="paint3_linear" x1="65" y1="76.9023" x2="65" y2="63.7773" gradientUnits="userSpaceOnUse">
<stop stop-color="#00B342"/>
<stop offset="1" stop-color="#98D9A2"/>
</linearGradient>
</defs>
</svg>
