<svg width="55" height="55" viewBox="0 0 55 55" fill="none" xmlns="http://www.w3.org/2000/svg">
<path d="M39.4369 30.0696L35.2827 25.8887L39.3833 21.7581C40.2331 20.9792 40.5887 19.8053 40.315 18.7212C40.057 17.618 39.2324 16.7259 38.1938 16.4002L18.8579 9.95488C17.6273 9.54088 16.3073 9.92631 15.6132 10.6866C14.71 11.5191 14.3891 12.8298 14.7887 14.0241L21.2245 33.3302C21.5487 34.3704 22.4425 35.2122 23.5094 35.4797C24.5234 35.7282 25.8123 35.4235 26.5401 34.6048L30.7225 30.4472L34.8422 34.5385C36.0887 35.9307 38.3464 35.8303 39.4023 34.6313C40.7319 33.3749 40.6936 31.2564 39.4369 30.0696ZM37.1679 50.0586C36.2803 50.0586 35.5565 49.3363 35.5565 48.4473V42.0019C35.5565 41.1113 34.8358 40.3906 33.9452 40.3906H21.0546C20.1639 40.3906 19.4433 41.1113 19.4433 42.0019V48.4473C19.4433 49.3363 18.7194 50.0586 17.8319 50.0586C16.9413 50.0586 16.2206 50.7793 16.2206 51.6699C16.2206 52.5606 16.9413 53.2812 17.8319 53.2812H37.1679C38.0585 53.2812 38.7792 52.5606 38.7792 51.6699C38.7792 50.7793 38.0585 50.0586 37.1679 50.0586Z" fill="#FEEAD0"/>
<path d="M50.166 1.71875H4.83398C2.15907 1.71875 0 3.87793 0 6.55273V38.7793C0 41.454 2.15907 43.6133 4.83398 43.6133H50.166C52.8408 43.6133 55 41.454 55 38.7793V6.55273C55 3.87793 52.8408 1.71875 50.166 1.71875ZM38.2958 31.2059C38.9403 31.8183 38.9403 32.8495 38.2958 33.4618C37.7161 34.1063 36.62 34.1066 36.04 33.4618L30.7227 28.1767L25.4052 33.4618C25.0096 33.9017 24.3488 34.0277 23.8906 33.913C23.3749 33.7842 22.9238 33.3651 22.7628 32.8495L16.3175 13.5136C16.1239 12.9335 16.2529 12.289 16.7042 11.87C17.1232 11.4189 17.7676 11.2899 18.3477 11.4833L37.6836 17.9286C38.1993 18.0897 38.6183 18.5409 38.7471 19.089C38.8761 19.6045 38.7148 20.1846 38.2959 20.5713L33.0108 25.8887L38.2958 31.2059Z" fill="url(#paint0_linear)"/>
<defs>
<linearGradient id="paint0_linear" x1="32.3889" y1="43.6133" x2="32.3889" y2="1.71875" gradientUnits="userSpaceOnUse">
<stop stop-color="#F8991D"/>
<stop offset="1" stop-color="#FDE0B4"/>
</linearGradient>
</defs>
</svg>
