<svg width="61" height="60" viewBox="0 0 61 60" fill="none" xmlns="http://www.w3.org/2000/svg">
<g clip-path="url(#clip0)">
<path d="M30.5 0C17.9 0 7.64844 10.2516 7.64844 22.8516V26.6016C7.64844 27.5732 8.43465 28.3594 9.40625 28.3594C10.3779 28.3594 11.1641 27.5732 11.1641 26.6016V22.8516C11.1641 12.1897 19.8382 3.51562 30.5 3.51562C41.1618 3.51562 49.8359 12.1897 49.8359 22.8516V26.6016C49.8359 27.5732 50.6221 28.3594 51.5938 28.3594C52.5654 28.3594 53.3516 27.5732 53.3516 26.6016V22.8516C53.3516 10.2516 43.1 0 30.5 0ZM51.5938 42.4219C50.6221 42.4219 49.8359 43.2081 49.8359 44.1797C49.8359 49.0257 45.8929 52.9688 41.0469 52.9688H34.0156C33.044 52.9688 32.2578 53.755 32.2578 54.7266C32.2578 55.6982 33.044 56.4844 34.0156 56.4844H41.0469C47.831 56.4844 53.3516 50.9638 53.3516 44.1797C53.3516 43.2081 52.5654 42.4219 51.5938 42.4219Z" fill="url(#paint0_linear)"/>
<path d="M9.40625 24.8438L13.175 35.5434L9.40625 45.9375C4.55469 45.9375 0.617188 42 0.617188 37.1484V33.6328C0.617188 28.7812 4.55469 24.8438 9.40625 24.8438Z" fill="url(#paint1_linear)"/>
<path d="M51.5938 24.8438V45.9375H44.5625C43.578 45.9375 42.8047 45.1639 42.8047 44.1797V26.6016C42.8047 25.6171 43.578 24.8438 44.5625 24.8438H51.5938Z" fill="#FEF3E1"/>
<path d="M18.1953 26.6016V44.1797C18.1953 45.1639 17.422 45.9375 16.4375 45.9375H9.40625V24.8438H16.4375C17.422 24.8438 18.1953 25.6171 18.1953 26.6016Z" fill="#FEF3E1"/>
<path d="M60.3828 33.3984V36.9141C60.3828 41.7656 56.4453 45.9375 51.5938 45.9375V24.8438C56.4453 24.8438 60.3828 28.5469 60.3828 33.3984Z" fill="url(#paint2_linear)"/>
<path d="M30.5 60C27.5921 60 25.2266 57.6345 25.2266 54.7266C25.2266 51.8187 27.5921 49.4531 30.5 49.4531C33.4079 49.4531 35.7734 51.8187 35.7734 54.7266C35.7734 57.6345 33.4079 60 30.5 60Z" fill="#FDE0B4"/>
</g>
<defs>
<linearGradient id="paint0_linear" x1="12.2187" y1="33.6635" x2="52.8678" y2="28.6375" gradientUnits="userSpaceOnUse">
<stop stop-color="#F8991D"/>
<stop offset="1" stop-color="#FDE0B4"/>
</linearGradient>
<linearGradient id="paint1_linear" x1="8.01235" y1="45.9375" x2="8.01235" y2="24.8438" gradientUnits="userSpaceOnUse">
<stop stop-color="#F8991D"/>
<stop offset="1" stop-color="#FDE0B4"/>
</linearGradient>
<linearGradient id="paint2_linear" x1="56.7695" y1="45.9375" x2="56.7695" y2="24.8438" gradientUnits="userSpaceOnUse">
<stop stop-color="#F8991D"/>
<stop offset="1" stop-color="#FDE0B4"/>
</linearGradient>
<clipPath id="clip0">
<rect width="60" height="60" fill="white" transform="translate(0.5)"/>
</clipPath>
</defs>
</svg>
