<svg width="72" height="64" viewBox="0 0 72 64" fill="none" xmlns="http://www.w3.org/2000/svg">
<g clip-path="url(#clip0)">
<path d="M36 64C35.7125 64 35.425 63.9341 35.1614 63.8022L5.03638 48.6772C4.401 48.3586 4 47.7105 4 47C4 46.2895 4.401 45.6413 5.03638 45.3227L20.1614 37.8227C20.6887 37.5591 21.3113 37.5591 21.8386 37.8227L36 44.9035L50.1614 37.8227C50.6887 37.5591 51.3113 37.5591 51.8386 37.8227L66.9636 45.3227C67.599 45.6413 68 46.2895 68 47C68 47.7105 67.599 48.3586 66.9636 48.6772L36.8386 63.8022C36.575 63.9341 36.2875 64 36 64Z" fill="url(#paint0_linear)"/>
<path d="M36 48.875C35.7125 48.875 35.425 48.8091 35.1614 48.6772L5.03638 33.6772C4.401 33.3586 4 32.7105 4 32C4 31.2895 4.401 30.6413 5.03638 30.3227L20.1614 22.8227C20.6887 22.5591 21.3113 22.5591 21.8386 22.8227L36 29.9035L50.1614 22.8227C50.6887 22.5591 51.3113 22.5591 51.8386 22.8227L66.9636 30.3227C67.599 30.6413 68 31.2895 68 32C68 32.7105 67.599 33.3586 66.9636 33.6772L36.8386 48.6772C36.575 48.8091 36.2875 48.875 36 48.875Z" fill="#FDE0B4"/>
<path d="M36 33.8752C35.7125 33.8752 35.425 33.8093 35.1614 33.6775L5.03638 18.6775C4.401 18.3588 4 17.7107 4 17.0002C4 16.2897 4.401 15.6416 5.03638 15.323L35.1614 0.197963C35.6887 -0.0656621 36.3113 -0.0656621 36.8386 0.197963L66.9636 15.323C67.599 15.6416 68 16.2897 68 17.0002C68 17.7107 67.599 18.3588 66.9636 18.6775L36.8386 33.6775C36.575 33.8093 36.2875 33.8752 36 33.8752Z" fill="url(#paint1_linear)"/>
</g>
<defs>
<linearGradient id="paint0_linear" x1="41.6889" y1="64" x2="41.6889" y2="37.625" gradientUnits="userSpaceOnUse">
<stop stop-color="#F8991D"/>
<stop offset="1" stop-color="#FDE0B4"/>
</linearGradient>
<linearGradient id="paint1_linear" x1="41.6889" y1="33.8752" x2="41.6889" y2="0.00024423" gradientUnits="userSpaceOnUse">
<stop stop-color="#F8991D"/>
<stop offset="1" stop-color="#FDE0B4"/>
</linearGradient>
<clipPath id="clip0">
<rect width="64" height="64" fill="white" transform="translate(4)"/>
</clipPath>
</defs>
</svg>
