<svg width="65" height="67" viewBox="0 0 65 67" fill="none" xmlns="http://www.w3.org/2000/svg">
<g clip-path="url(#clip0)">
<path d="M63.125 60.7969H2.875C1.83862 60.7969 1 59.9268 1 58.8516V19.9453C1 18.8701 1.83862 18 2.875 18H63.125C64.1614 18 65 18.8701 65 19.9453V58.8516C65 59.9268 64.1614 60.7969 63.125 60.7969Z" fill="url(#paint0_linear)"/>
<path d="M48 53.0156H18C16.9636 53.0156 16.125 52.1456 16.125 51.0703C16.125 47.8522 13.6017 45.2344 10.5 45.2344C9.46362 45.2344 8.625 44.3643 8.625 43.2891V35.5078C8.625 34.4326 9.46362 33.5625 10.5 33.5625C13.6017 33.5625 16.125 30.9446 16.125 27.7266C16.125 26.6513 16.9636 25.7812 18 25.7812H48C49.0364 25.7812 49.875 26.6513 49.875 27.7266C49.875 30.9446 52.3983 33.5625 55.5 33.5625C56.5364 33.5625 57.375 34.4326 57.375 35.5078V43.2891C57.375 44.3643 56.5364 45.2344 55.5 45.2344C52.3983 45.2344 49.875 47.8522 49.875 51.0703C49.875 52.1456 49.0364 53.0156 48 53.0156Z" fill="white"/>
<path d="M33 45.2344C36.1066 45.2344 38.625 42.6215 38.625 39.3984C38.625 36.1753 36.1066 33.5625 33 33.5625C29.8934 33.5625 27.375 36.1753 27.375 39.3984C27.375 42.6215 29.8934 45.2344 33 45.2344Z" fill="url(#paint1_linear)"/>
</g>
<defs>
<linearGradient id="paint0_linear" x1="38.6889" y1="60.7969" x2="38.6889" y2="18" gradientUnits="userSpaceOnUse">
<stop stop-color="#F8991D"/>
<stop offset="1" stop-color="#FDE0B4"/>
</linearGradient>
<linearGradient id="paint1_linear" x1="34" y1="45.2344" x2="34" y2="33.5625" gradientUnits="userSpaceOnUse">
<stop stop-color="#F8991D"/>
<stop offset="1" stop-color="#FDE0B4"/>
</linearGradient>
<clipPath id="clip0">
<rect width="64" height="66.4" fill="white" transform="translate(0.5)"/>
</clipPath>
</defs>
</svg>
