<svg width="57" height="56" viewBox="0 0 57 56" fill="none" xmlns="http://www.w3.org/2000/svg">
<g clip-path="url(#clip0)">
<path d="M12.2267 16.8835C9.99054 16.8835 8.17773 18.6963 8.17773 20.9325C8.17773 23.1687 9.99054 24.9815 12.2267 24.9815C9.99054 24.9815 8.17773 26.7939 8.17773 29.0301C8.17773 31.2663 9.99054 33.0791 12.2267 33.0791H18.0441V16.59L12.2267 16.8835Z" fill="#DD9F68"/>
<path d="M25.4551 49.8361C25.7499 50.1792 26.0566 50.5116 26.3771 50.832C29.5707 54.0257 33.9812 56 38.8544 56C48.5998 56 56.4988 48.0998 56.4988 38.3543" fill="#DD9F68"/>
<path d="M44.8438 3.26843V42.8844H37.6806C37.916 43.3689 38.1924 43.8325 38.5082 44.2695C38.9269 44.8502 39.1666 45.541 39.1666 46.2584V46.5074C39.1666 48.3459 37.6759 49.8365 35.8375 49.8365H15.4946C13.6895 49.8365 12.2266 48.3732 12.2266 46.5694V3.26843C12.2266 1.46332 13.6895 0 15.4946 0H41.5779C43.3805 0 44.8438 1.46332 44.8438 3.26843Z" fill="#405968"/>
<path d="M18.3362 49.8365H15.4946C13.6895 49.8365 12.2266 48.3732 12.2266 46.5694V3.26843C12.2266 1.46332 13.6895 0 15.4946 0H18.3362C16.5311 0 15.0677 1.46332 15.0677 3.26843V46.5694C15.0677 48.3732 16.5311 49.8365 18.3362 49.8365Z" fill="#273C47"/>
<path d="M12.2266 5.01373H44.8438V40.6179H12.2266V5.01373Z" fill="#6ADBBD"/>
<path d="M41.0477 5.01373L12.2266 33.8358V19.2423L26.4551 5.01373H41.0477Z" fill="#A6F7E0"/>
<path d="M44.8438 7.71051V15.0079L19.2334 40.6179H12.2266V40.329L44.8438 7.71051Z" fill="#A6F7E0"/>
<path d="M12.2266 5.01373H15.0682V40.6179H12.2266V5.01373Z" fill="#4FBF9F"/>
<path d="M12.2266 4.2605H13.6078V41.3711H12.2266V4.2605Z" fill="#273C47"/>
<path d="M42 5.01373H44.8416V40.6179H42V5.01373Z" fill="#A6F7E0"/>
<path d="M43.4609 4.2605H44.8422V41.3711H43.4609V4.2605Z" fill="#405968"/>
<path d="M34.2173 17.855C32.5604 19.5119 32.5604 22.198 34.2173 23.8548L40.6195 30.2576C40.0573 30.6716 39.5279 31.1518 39.043 31.6987C35.7998 35.3602 35.8575 41.4758 39.1669 45.0779C43.0095 49.2598 49.4969 49.3965 53.5125 45.488C55.5146 43.5394 56.5041 40.9507 56.5011 38.3543C56.4977 35.7468 55.4941 33.1312 53.51 31.1475L40.2175 17.855C38.5606 16.1977 35.8741 16.1977 34.2173 17.855Z" fill="#FFC994"/>
<path d="M40.6198 30.258L34.2175 23.8544C33.389 23.026 32.9746 21.9404 32.9746 20.8547C32.9746 19.7691 33.389 18.6835 34.2175 17.855C34.0889 17.9836 34.0282 18.1682 34.0282 18.3968C34.0282 19.2286 34.8383 20.6334 36.1384 21.9335L40.6198 26.4158C41.6806 27.4766 41.6806 29.1967 40.6198 30.258Z" fill="#DD9F68"/>
<path d="M53.6222 45.3782C53.5867 45.4163 53.5487 45.4517 53.512 45.4885C50.4995 48.4198 46.0975 51.0064 42.4638 49.3862C41.2526 48.8462 40.1268 46.1234 39.1663 45.0779C35.8564 41.4753 35.7992 35.3602 39.0424 31.6995C39.1697 31.556 39.2992 31.4158 39.4338 31.2817C39.3637 31.3539 39.2958 31.4299 39.2317 31.5103C37.4791 33.6802 38.845 38.4872 42.2177 42.0265C46.133 46.1358 51.2488 47.6435 53.5534 45.4462C53.5761 45.4244 53.5991 45.4013 53.6222 45.3782Z" fill="#DD9F68"/>
<path d="M31.1514 45.8157H25.9172C25.537 45.8157 25.2285 45.5077 25.2285 45.1274C25.2285 44.7472 25.537 44.4387 25.9172 44.4387H31.1514C31.5312 44.4387 31.8397 44.7472 31.8397 45.1274C31.8397 45.5077 31.5312 45.8157 31.1514 45.8157Z" fill="#273C47"/>
<path d="M31.1514 3.41968H25.9172C25.537 3.41968 25.2285 3.11121 25.2285 2.73096C25.2285 2.35071 25.537 2.04224 25.9172 2.04224H31.1514C31.5312 2.04224 31.8397 2.35071 31.8397 2.73096C31.8397 3.11121 31.5312 3.41968 31.1514 3.41968Z" fill="#273C47"/>
</g>
<defs>
<clipPath id="clip0">
<rect width="56" height="56" fill="white" transform="translate(0.5)"/>
</clipPath>
</defs>
</svg>
