<svg width="64" height="64" viewBox="0 0 64 64" fill="none" xmlns="http://www.w3.org/2000/svg">
<g clip-path="url(#clip0)">
<path d="M39.3334 48.9333C40.1334 46.2666 41.7334 43.8666 43.8668 41.9999C47.8668 38.6665 50.4002 33.5999 50.4002 27.9999C50.4002 17.5999 41.7336 9.06652 31.0668 9.59989C21.6001 9.99989 13.8667 17.9999 13.6001 27.4665C13.4667 33.3333 16.0001 38.5333 20.1334 41.9999C22.4001 43.8665 24.0001 46.2665 24.8001 48.9333H39.3334Z" fill="url(#paint0_linear)"/>
<path d="M30.2667 49.2001H31.4667L26.1333 29.3335C26.2667 29.3335 26.3999 29.3335 26.5333 29.3335C27.1999 29.3335 27.8667 29.0669 28.3999 28.5335C28.6666 28.2669 28.9333 28.1335 29.3333 28.1335C29.7333 28.1335 29.9999 28.2669 30.2667 28.5335C31.2001 29.6001 32.8 29.6001 33.7333 28.5335C33.9999 28.2669 34.2667 28.1335 34.6667 28.1335C34.9333 28.1335 35.3333 28.2669 35.6 28.5335C36.1334 29.0669 36.6667 29.3335 37.4667 29.3335C37.6 29.3335 37.7333 29.3335 37.8667 29.3335L32.6667 49.2001H33.8667L39.3333 28.4001C39.3333 28.1335 39.3333 27.8668 39.0667 27.7335C38.8 27.6001 38.5333 27.7335 38.4 27.8669C38.1334 28.1335 37.8667 28.2669 37.6 28.2669C37.2 28.2669 36.9334 28.1335 36.5334 27.8669C36 27.3335 35.4668 27.0669 34.8 27.0669C34.1333 27.0669 33.6 27.3335 33.0667 27.8669C32.5333 28.4003 31.7333 28.4003 31.2001 27.8669C30.8001 27.3335 30.1334 27.0669 29.4667 27.0669C28.8001 27.0669 28.1333 27.3335 27.7333 27.8669C27.4667 28.1335 27.0667 28.2669 26.6667 28.2669C26.4001 28.2669 26.0001 28.1335 25.8667 27.8669C25.7333 27.7335 25.4667 27.6003 25.2001 27.7335C24.9334 27.8669 24.8001 28.1335 24.9334 28.4001L30.2667 49.2001Z" fill="white"/>
<path d="M27.8665 61.2002C28.5333 62.8002 30.1333 64.0002 31.9999 64.0002C33.8665 64.0002 35.4665 62.8002 36.1333 61.2002H27.8665Z" fill="#344A5E"/>
<path d="M36.9334 61.3334H27.2001C25.8667 61.3334 24.8 60.2668 24.8 58.9334V48.8H39.3334V58.9334C39.3334 60.2667 38.2667 61.3334 36.9334 61.3334Z" fill="#344A5E"/>
<path d="M39.2 53.8666H24.8C24 53.8666 23.3334 53.2 23.3334 52.4C23.3334 51.6 24 50.9333 24.8 50.9333H39.2C40 50.9333 40.6666 51.6 40.6666 52.4C40.6666 53.2 40 53.8666 39.2 53.8666Z" fill="#415A6B"/>
<path d="M39.2 58.5333H24.8C24 58.5333 23.3334 57.8667 23.3334 57.0667C23.3334 56.2667 24 55.6001 24.8 55.6001H39.2C40 55.6001 40.6666 56.2667 40.6666 57.0667C40.6666 57.8666 40 58.5333 39.2 58.5333Z" fill="#415A6B"/>
<path d="M32 0C31.3334 0 30.6666 0.533375 30.6666 1.33337V5.86675C30.6666 6.53337 31.2 7.20012 32 7.20012C32.8 7.20012 33.3334 6.66675 33.3334 5.86675V1.33337C33.3334 0.533375 32.6666 0 32 0Z" fill="url(#paint1_linear)"/>
<path d="M14.1334 8.13343C13.6001 7.60005 12.8001 7.60005 12.2668 8.13343C11.7336 8.6668 11.7334 9.4668 12.2668 10.0001L15.4668 13.2001C16.0002 13.7334 16.8002 13.7334 17.3334 13.2001C17.8667 12.6667 17.8668 11.8667 17.3334 11.3334L14.1334 8.13343Z" fill="url(#paint2_linear)"/>
<path d="M10.0001 26.5332H5.46668C4.80005 26.5332 4.1333 27.0666 4.1333 27.8666C4.1333 28.5332 4.66668 29.2 5.46668 29.2H10.0001C10.6667 29.2 11.3334 28.6666 11.3334 27.8666C11.3334 27.1998 10.6667 26.5332 10.0001 26.5332Z" fill="url(#paint3_linear)"/>
<path d="M15.4667 42.5333L12.2667 45.7333C11.7334 46.2667 11.7334 47.0667 12.2667 47.5999C12.8001 48.1332 13.6001 48.1333 14.1334 47.5999L17.3334 44.3999C17.8667 43.8665 17.8667 43.0665 17.3334 42.5333C16.8 42 16.0001 41.9999 15.4667 42.5333Z" fill="url(#paint4_linear)"/>
<path d="M48.5333 42.5333C47.9999 42 47.1999 42 46.6666 42.5333C46.1332 43.0667 46.1332 43.8667 46.6666 44.4L49.8666 47.5999C50.4 48.1333 51.2 48.1333 51.7332 47.5999C52.2665 47.0666 52.2666 46.2666 51.7332 45.7333L48.5333 42.5333Z" fill="url(#paint5_linear)"/>
<path d="M58.5334 26.5332H54C53.3334 26.5332 52.6666 27.0666 52.6666 27.8666C52.6666 28.5332 53.2 29.2 54 29.2H58.5334C59.2 29.2 59.8667 28.6666 59.8667 27.8666C59.8666 27.1998 59.3334 26.5332 58.5334 26.5332Z" fill="url(#paint6_linear)"/>
<path d="M49.8666 8.13338L46.6666 11.3334C46.1332 11.8668 46.1332 12.6668 46.6666 13.2C47.1999 13.7334 47.9999 13.7334 48.5332 13.2L51.7332 10C52.2666 9.46663 52.2666 8.66663 51.7332 8.13338C51.1998 7.60013 50.3999 7.60001 49.8666 8.13338Z" fill="url(#paint7_linear)"/>
</g>
<defs>
<linearGradient id="paint0_linear" x1="35.2692" y1="48.9333" x2="35.2692" y2="9.57617" gradientUnits="userSpaceOnUse">
<stop stop-color="#F8991D"/>
<stop offset="1" stop-color="#FDE0B4"/>
</linearGradient>
<linearGradient id="paint1_linear" x1="32.2371" y1="7.20012" x2="32.2371" y2="1.90436e-08" gradientUnits="userSpaceOnUse">
<stop stop-color="#F8991D"/>
<stop offset="1" stop-color="#FDE0B4"/>
</linearGradient>
<linearGradient id="paint2_linear" x1="15.3216" y1="13.6001" x2="15.3216" y2="7.7334" gradientUnits="userSpaceOnUse">
<stop stop-color="#F8991D"/>
<stop offset="1" stop-color="#FDE0B4"/>
</linearGradient>
<linearGradient id="paint3_linear" x1="8.37338" y1="29.2" x2="8.37338" y2="26.5332" gradientUnits="userSpaceOnUse">
<stop stop-color="#F8991D"/>
<stop offset="1" stop-color="#FDE0B4"/>
</linearGradient>
<linearGradient id="paint4_linear" x1="15.3215" y1="47.9999" x2="15.3215" y2="42.1333" gradientUnits="userSpaceOnUse">
<stop stop-color="#F8991D"/>
<stop offset="1" stop-color="#FDE0B4"/>
</linearGradient>
<linearGradient id="paint5_linear" x1="49.7213" y1="48" x2="49.7213" y2="42.1333" gradientUnits="userSpaceOnUse">
<stop stop-color="#F8991D"/>
<stop offset="1" stop-color="#FDE0B4"/>
</linearGradient>
<linearGradient id="paint6_linear" x1="56.9067" y1="29.2" x2="56.9067" y2="26.5332" gradientUnits="userSpaceOnUse">
<stop stop-color="#F8991D"/>
<stop offset="1" stop-color="#FDE0B4"/>
</linearGradient>
<linearGradient id="paint7_linear" x1="49.7214" y1="13.6" x2="49.7214" y2="7.7334" gradientUnits="userSpaceOnUse">
<stop stop-color="#F8991D"/>
<stop offset="1" stop-color="#FDE0B4"/>
</linearGradient>
<clipPath id="clip0">
<rect width="64" height="64" fill="white"/>
</clipPath>
</defs>
</svg>
